Track 0: 
MetaMessage('set_tempo', tempo=500000, time=0)
MetaMessage('time_signature', numerator=4, denominator=4, clocks_per_click=24, notated_32nd_notes_per_beat=8, time=0)
MetaMessage('end_of_track', time=1)
Track 1: 
program_change channel=0 program=0 time=0
note_on channel=0 note=72 velocity=100 time=0 fre = 523
note_on channel=0 note=72 velocity=0 time=480 fre = 523
note_on channel=0 note=72 velocity=100 time=0 fre = 523
note_on channel=0 note=72 velocity=0 time=480 fre = 523
note_on channel=0 note=76 velocity=100 time=0 fre = 659
note_on channel=0 note=76 velocity=0 time=480 fre = 659
note_on channel=0 note=76 velocity=100 time=0 fre = 659
note_on channel=0 note=74 velocity=100 time=480 fre = 587
note_on channel=0 note=76 velocity=0 time=0 fre = 659
note_on channel=0 note=69 velocity=100 time=960 fre = 440
note_on channel=0 note=74 velocity=0 time=0 fre = 587
note_on channel=0 note=69 velocity=0 time=960 fre = 440
note_on channel=0 note=72 velocity=100 time=0 fre = 523
note_on channel=0 note=71 velocity=100 time=240 fre = 494
note_on channel=0 note=72 velocity=0 time=0 fre = 523
note_on channel=0 note=71 velocity=0 time=240 fre = 494
note_on channel=0 note=72 velocity=100 time=0 fre = 523
note_on channel=0 note=72 velocity=0 time=240 fre = 523
note_on channel=0 note=74 velocity=100 time=0 fre = 587
note_on channel=0 note=74 velocity=0 time=240 fre = 587
note_on channel=0 note=76 velocity=100 time=0 fre = 659
note_on channel=0 note=74 velocity=100 time=480 fre = 587
note_on channel=0 note=76 velocity=0 time=0 fre = 659
note_on channel=0 note=72 velocity=100 time=480 fre = 523
note_on channel=0 note=74 velocity=0 time=0 fre = 587
note_on channel=0 note=72 velocity=0 time=1920 fre = 523
note_on channel=0 note=74 velocity=100 time=0 fre = 587
note_on channel=0 note=74 velocity=0 time=480 fre = 587
note_on channel=0 note=74 velocity=100 time=0 fre = 587
note_on channel=0 note=74 velocity=0 time=480 fre = 587
note_on channel=0 note=77 velocity=100 time=0 fre = 698
note_on channel=0 note=77 velocity=0 time=480 fre = 698
note_on channel=0 note=77 velocity=100 time=0 fre = 698
note_on channel=0 note=76 velocity=100 time=480 fre = 659
note_on channel=0 note=77 velocity=0 time=0 fre = 698
note_on channel=0 note=74 velocity=100 time=960 fre = 587
note_on channel=0 note=76 velocity=0 time=0 fre = 659
note_on channel=0 note=74 velocity=0 time=960 fre = 587
note_on channel=0 note=74 velocity=100 time=0 fre = 587
note_on channel=0 note=73 velocity=100 time=240 fre = 554
note_on channel=0 note=74 velocity=0 time=0 fre = 587
note_on channel=0 note=73 velocity=0 time=240 fre = 554
note_on channel=0 note=74 velocity=100 time=0 fre = 587
note_on channel=0 note=74 velocity=0 time=240 fre = 587
note_on channel=0 note=76 velocity=100 time=0 fre = 659
note_on channel=0 note=76 velocity=0 time=240 fre = 659
note_on channel=0 note=77 velocity=100 time=0 fre = 698
note_on channel=0 note=76 velocity=100 time=480 fre = 659
note_on channel=0 note=77 velocity=0 time=0 fre = 698
note_on channel=0 note=74 velocity=100 time=480 fre = 587
note_on channel=0 note=76 velocity=0 time=0 fre = 659
note_on channel=0 note=69 velocity=100 time=1440 fre = 440
note_on channel=0 note=74 velocity=0 time=0 fre = 587
note_on channel=0 note=69 velocity=0 time=480 fre = 440
note_on channel=0 note=77 velocity=100 time=0 fre = 698
note_on channel=0 note=77 velocity=0 time=480 fre = 698
note_on channel=0 note=77 velocity=100 time=0 fre = 698
note_on channel=0 note=76 velocity=100 time=480 fre = 659
note_on channel=0 note=77 velocity=0 time=0 fre = 698
note_on channel=0 note=74 velocity=100 time=480 fre = 587
note_on channel=0 note=76 velocity=0 time=0 fre = 659
note_on channel=0 note=72 velocity=100 time=480 fre = 523
note_on channel=0 note=74 velocity=0 time=0 fre = 587
note_on channel=0 note=72 velocity=0 time=480 fre = 523
note_on channel=0 note=72 velocity=100 time=0 fre = 523
note_on channel=0 note=71 velocity=100 time=480 fre = 494
note_on channel=0 note=72 velocity=0 time=0 fre = 523
note_on channel=0 note=69 velocity=100 time=480 fre = 440
note_on channel=0 note=71 velocity=0 time=0 fre = 494
note_on channel=0 note=67 velocity=100 time=480 fre = 392
note_on channel=0 note=69 velocity=0 time=0 fre = 440
note_on channel=0 note=67 velocity=0 time=480 fre = 392
note_on channel=0 note=77 velocity=100 time=0 fre = 698
note_on channel=0 note=76 velocity=100 time=480 fre = 659
note_on channel=0 note=77 velocity=0 time=0 fre = 698
note_on channel=0 note=74 velocity=100 time=480 fre = 587
note_on channel=0 note=76 velocity=0 time=0 fre = 659
note_on channel=0 note=72 velocity=100 time=480 fre = 523
note_on channel=0 note=74 velocity=0 time=0 fre = 587
note_on channel=0 note=67 velocity=100 time=1920 fre = 392
note_on channel=0 note=72 velocity=0 time=0 fre = 523
note_on channel=0 note=67 velocity=0 time=480 fre = 392
note_on channel=0 note=76 velocity=100 time=0 fre = 659
note_on channel=0 note=74 velocity=100 time=480 fre = 587
note_on channel=0 note=76 velocity=0 time=0 fre = 659
note_on channel=0 note=72 velocity=100 time=480 fre = 523
note_on channel=0 note=74 velocity=0 time=0 fre = 587
note_on channel=0 note=71 velocity=100 time=480 fre = 494
note_on channel=0 note=72 velocity=0 time=0 fre = 523
note_on channel=0 note=71 velocity=0 time=480 fre = 494
note_on channel=0 note=71 velocity=100 time=0 fre = 494
note_on channel=0 note=69 velocity=100 time=480 fre = 440
note_on channel=0 note=71 velocity=0 time=0 fre = 494
note_on channel=0 note=69 velocity=0 time=480 fre = 440
note_on channel=0 note=71 velocity=100 time=0 fre = 494
note_on channel=0 note=71 velocity=0 time=480 fre = 494
note_on channel=0 note=72 velocity=100 time=0 fre = 523
note_on channel=0 note=72 velocity=0 time=480 fre = 523
note_on channel=0 note=72 velocity=100 time=0 fre = 523
note_on channel=0 note=72 velocity=0 time=480 fre = 523
note_on channel=0 note=74 velocity=100 time=0 fre = 587
note_on channel=0 note=74 velocity=0 time=480 fre = 587
note_on channel=0 note=76 velocity=100 time=0 fre = 659
note_on channel=0 note=74 velocity=100 time=480 fre = 587
note_on channel=0 note=76 velocity=0 time=0 fre = 659
note_on channel=0 note=72 velocity=100 time=1920 fre = 523
note_on channel=0 note=74 velocity=0 time=0 fre = 587
note_on channel=0 note=72 velocity=0 time=480 fre = 523
note_on channel=0 note=72 velocity=100 time=0 fre = 523
note_on channel=0 note=72 velocity=0 time=480 fre = 523
note_on channel=0 note=76 velocity=100 time=0 fre = 659
note_on channel=0 note=76 velocity=0 time=480 fre = 659
note_on channel=0 note=76 velocity=100 time=0 fre = 659
note_on channel=0 note=74 velocity=100 time=480 fre = 587
note_on channel=0 note=76 velocity=0 time=0 fre = 659
note_on channel=0 note=69 velocity=100 time=960 fre = 440
note_on channel=0 note=74 velocity=0 time=0 fre = 587
note_on channel=0 note=69 velocity=0 time=960 fre = 440
note_on channel=0 note=72 velocity=100 time=0 fre = 523
note_on channel=0 note=71 velocity=100 time=240 fre = 494
note_on channel=0 note=72 velocity=0 time=0 fre = 523
note_on channel=0 note=71 velocity=0 time=240 fre = 494
note_on channel=0 note=72 velocity=100 time=0 fre = 523
note_on channel=0 note=72 velocity=0 time=240 fre = 523
note_on channel=0 note=74 velocity=100 time=0 fre = 587
note_on channel=0 note=74 velocity=0 time=240 fre = 587
note_on channel=0 note=76 velocity=100 time=0 fre = 659
note_on channel=0 note=74 velocity=100 time=480 fre = 587
note_on channel=0 note=76 velocity=0 time=0 fre = 659
note_on channel=0 note=72 velocity=100 time=480 fre = 523
note_on channel=0 note=74 velocity=0 time=0 fre = 587
note_on channel=0 note=72 velocity=0 time=1920 fre = 523
note_on channel=0 note=76 velocity=100 time=0 fre = 659
note_on channel=0 note=76 velocity=0 time=480 fre = 659
note_on channel=0 note=76 velocity=100 time=0 fre = 659
note_on channel=0 note=76 velocity=0 time=480 fre = 659
note_on channel=0 note=79 velocity=100 time=0 fre = 784
note_on channel=0 note=79 velocity=0 time=480 fre = 784
note_on channel=0 note=79 velocity=100 time=0 fre = 784
note_on channel=0 note=77 velocity=100 time=480 fre = 698
note_on channel=0 note=79 velocity=0 time=0 fre = 784
note_on channel=0 note=72 velocity=100 time=960 fre = 523
note_on channel=0 note=77 velocity=0 time=0 fre = 698
note_on channel=0 note=72 velocity=0 time=960 fre = 523
note_on channel=0 note=76 velocity=100 time=0 fre = 659
note_on channel=0 note=75 velocity=100 time=240 fre = 622
note_on channel=0 note=76 velocity=0 time=0 fre = 659
note_on channel=0 note=75 velocity=0 time=240 fre = 622
note_on channel=0 note=76 velocity=100 time=0 fre = 659
note_on channel=0 note=76 velocity=0 time=240 fre = 659
note_on channel=0 note=77 velocity=100 time=0 fre = 698
note_on channel=0 note=77 velocity=0 time=240 fre = 698
note_on channel=0 note=79 velocity=100 time=0 fre = 784
note_on channel=0 note=79 velocity=0 time=480 fre = 784
note_on channel=0 note=79 velocity=100 time=0 fre = 784
note_on channel=0 note=77 velocity=100 time=480 fre = 698
note_on channel=0 note=79 velocity=0 time=0 fre = 784
note_on channel=0 note=77 velocity=0 time=1920 fre = 698
note_on channel=0 note=81 velocity=100 time=0 fre = 880
note_on channel=0 note=81 velocity=0 time=480 fre = 880
note_on channel=0 note=81 velocity=100 time=0 fre = 880
note_on channel=0 note=80 velocity=100 time=240 fre = 831
note_on channel=0 note=81 velocity=0 time=0 fre = 880
note_on channel=0 note=80 velocity=0 time=240 fre = 831
note_on channel=0 note=81 velocity=100 time=0 fre = 880
note_on channel=0 note=81 velocity=0 time=240 fre = 880
note_on channel=0 note=83 velocity=100 time=0 fre = 988
note_on channel=0 note=83 velocity=0 time=240 fre = 988
note_on channel=0 note=84 velocity=100 time=0 fre = 1047
note_on channel=0 note=83 velocity=100 time=240 fre = 988
note_on channel=0 note=84 velocity=0 time=0 fre = 1047
note_on channel=0 note=81 velocity=100 time=240 fre = 880
note_on channel=0 note=83 velocity=0 time=0 fre = 988
note_on channel=0 note=79 velocity=100 time=480 fre = 784
note_on channel=0 note=81 velocity=0 time=0 fre = 880
note_on channel=0 note=79 velocity=0 time=1440 fre = 784
note_on channel=0 note=81 velocity=100 time=0 fre = 880
note_on channel=0 note=79 velocity=100 time=480 fre = 784
note_on channel=0 note=81 velocity=0 time=0 fre = 880
note_on channel=0 note=77 velocity=100 time=240 fre = 698
note_on channel=0 note=79 velocity=0 time=0 fre = 784
note_on channel=0 note=76 velocity=100 time=240 fre = 659
note_on channel=0 note=77 velocity=0 time=0 fre = 698
note_on channel=0 note=76 velocity=0 time=240 fre = 659
note_on channel=0 note=77 velocity=100 time=0 fre = 698
note_on channel=0 note=77 velocity=0 time=240 fre = 698
note_on channel=0 note=79 velocity=100 time=0 fre = 784
note_on channel=0 note=77 velocity=100 time=240 fre = 698
note_on channel=0 note=79 velocity=0 time=0 fre = 784
note_on channel=0 note=76 velocity=100 time=240 fre = 659
note_on channel=0 note=77 velocity=0 time=0 fre = 698
note_on channel=0 note=74 velocity=100 time=1440 fre = 587
note_on channel=0 note=76 velocity=0 time=0 fre = 659
note_on channel=0 note=72 velocity=100 time=480 fre = 523
note_on channel=0 note=74 velocity=0 time=0 fre = 587
note_on channel=0 note=71 velocity=100 time=480 fre = 494
note_on channel=0 note=72 velocity=0 time=0 fre = 523
note_on channel=0 note=71 velocity=0 time=480 fre = 494
note_on channel=0 note=72 velocity=100 time=0 fre = 523
note_on channel=0 note=72 velocity=0 time=480 fre = 523
note_on channel=0 note=74 velocity=100 time=0 fre = 587
note_on channel=0 note=74 velocity=0 time=480 fre = 587
note_on channel=0 note=76 velocity=100 time=0 fre = 659
note_on channel=0 note=76 velocity=0 time=960 fre = 659
note_on channel=0 note=81 velocity=100 time=0 fre = 880
note_on channel=0 note=77 velocity=100 time=960 fre = 698
note_on channel=0 note=81 velocity=0 time=0 fre = 880
note_on channel=0 note=76 velocity=100 time=480 fre = 659
note_on channel=0 note=77 velocity=0 time=0 fre = 698
note_on channel=0 note=74 velocity=100 time=480 fre = 587
note_on channel=0 note=76 velocity=0 time=0 fre = 659
note_on channel=0 note=72 velocity=100 time=480 fre = 523
note_on channel=0 note=74 velocity=0 time=0 fre = 587
note_on channel=0 note=72 velocity=0 time=480 fre = 523
MetaMessage('end_of_track', time=1)
